<?xml version="1.0" encoding="utf-8"?>
<!-- Generator: Adobe Illustrator 26.1.0, SVG Export Plug-In . SVG Version: 6.00 Build 0)  -->
<svg version="1.1" id="Calque_1" xmlns="http://www.w3.org/2000/svg" xmlns:xlink="http://www.w3.org/1999/xlink" x="0px" y="0px"
	 width="16px" height="16px" viewBox="0 0 16 16" style="enable-background:new 0 0 16 16;" xml:space="preserve">
<path d="M5,11.9l3-3l3,3l0.9-0.9l-3-3l3-3L11,4.1l-3,3l-3-3L4.1,5l3,3l-3,3L5,11.9z M8,16c-1.1,0-2.1-0.2-3.1-0.6
	c-1-0.4-1.8-1-2.5-1.7c-0.7-0.7-1.3-1.6-1.7-2.5C0.2,10.1,0,9.1,0,8c0-1.1,0.2-2.1,0.6-3.1c0.4-1,1-1.8,1.7-2.5
	c0.7-0.7,1.6-1.3,2.5-1.7C5.9,0.2,6.9,0,8,0s2.1,0.2,3.1,0.6c1,0.4,1.8,1,2.5,1.7c0.7,0.7,1.3,1.6,1.7,2.5c0.4,1,0.6,2,0.6,3.1
	s-0.2,2.1-0.6,3.1c-0.4,1-1,1.8-1.7,2.5c-0.7,0.7-1.6,1.3-2.5,1.7C10.1,15.8,9.1,16,8,16z M8,14.7c1.9,0,3.5-0.7,4.8-2s2-2.9,2-4.8
	s-0.7-3.5-2-4.8s-2.9-2-4.8-2s-3.5,0.7-4.8,2s-2,2.9-2,4.8s0.7,3.5,2,4.8S6.1,14.7,8,14.7z"/>
</svg>
